# xmcd
#
# Track frame offsets:
#	150
#	15981
#	33404
#	50886
#	68057
#	84012
#	98952
#	119842
#	136339
#	161104
#	180214
#
# Disc length: 2587 seconds
#
# Revision: 1
# Processed by: cddbd v1.5.2PL0 Copyright (c) Steve Scherf et al.
# Submitted via: audiograbber 1.83.01
#
DISCID=8a0a190b
DTITLE=The Bamboos - Side-Stepper
DYEAR=2008
DGENRE=Funk
TTITLE0=Nightsport
TTITLE1=Tears cried feat Kylie Auldist
TTITLE2=Now that you are mine feat Kylie Auldist
TTITLE3=King of the Rodeo feat Megan Washington
TTITLE4=Funky buttercup
TTITLE5=Can't help myself feat TY
TTITLE6=One man entourage
TTITLE7=Make it real feat Kylie Auldist
TTITLE8=Move on feat Paul MacInnes
TTITLE9=The side stepper
TTITLE10=Amen brother
EXTD=
EXTT0=
EXTT1=
EXTT2=
EXTT3=
EXTT4=
EXTT5=
EXTT6=
EXTT7=
EXTT8=
EXTT9=
EXTT10=
PLAYORDER=
